<svg width="35" height="22" viewBox="0 0 35 22" fill="none" xmlns="http://www.w3.org/2000/svg">
<path fill-rule="evenodd" clip-rule="evenodd" d="M3 6C4.65685 6 6 4.65685 6 3C6 1.34315 4.65685 0 3 0C1.34315 0 0 1.34315 0 3C0 4.65685 1.34315 6 3 6ZM3 13.8571C4.65685 13.8571 6 12.514 6 10.8571C6 9.20026 4.65685 7.85712 3 7.85712C1.34315 7.85712 0 9.20026 0 10.8571C0 12.514 1.34315 13.8571 3 13.8571ZM6 18.7143C6 20.3711 4.65685 21.7143 3 21.7143C1.34315 21.7143 0 20.3711 0 18.7143C0 17.0574 1.34315 15.7143 3 15.7143C4.65685 15.7143 6 17.0574 6 18.7143ZM9.5 1C8.67157 1 8 1.67157 8 2.5C8 3.32843 8.67157 4 9.5 4H33.5C34.3284 4 35 3.32843 35 2.5C35 1.67157 34.3284 1 33.5 1H9.5ZM8 10.5C8 9.67157 8.67157 9 9.5 9H33.5C34.3284 9 35 9.67157 35 10.5C35 11.3284 34.3284 12 33.5 12H9.5C8.67157 12 8 11.3284 8 10.5ZM9.5 17C8.67157 17 8 17.6716 8 18.5C8 19.3284 8.67157 20 9.5 20H33.5C34.3284 20 35 19.3284 35 18.5C35 17.6716 34.3284 17 33.5 17H9.5Z" fill="#E05881"/>
</svg>
