<svg width="32" height="32" viewBox="0 0 32 32" fill="none" xmlns="http://www.w3.org/2000/svg">
<path fill-rule="evenodd" clip-rule="evenodd" d="M1.12135 1.12136C-0.0502178 2.29293 -0.050217 4.19242 1.12136 5.364L11.728 15.9706L1.12139 26.5772C-0.0501799 27.7488 -0.0501806 29.6483 1.12139 30.8198C2.29297 31.9914 4.19246 31.9914 5.36403 30.8198L15.9706 20.2133L26.5772 30.8198C27.7488 31.9914 29.6483 31.9914 30.8198 30.8198C31.9914 29.6483 31.9914 27.7488 30.8198 26.5772L20.2133 15.9706L30.8199 5.364C31.9914 4.19242 31.9914 2.29293 30.8199 1.12136C29.6483 -0.0502175 27.7488 -0.0502174 26.5772 1.12136L15.9706 11.728L5.364 1.12136C4.19242 -0.0502174 2.29293 -0.0502175 1.12135 1.12136Z" fill="#9CFFFA"/>
</svg>
