<svg width="31" height="37" viewBox="0 0 31 37" fill="none" xmlns="http://www.w3.org/2000/svg">
<path fill-rule="evenodd" clip-rule="evenodd" d="M10.5 0C9.67157 0 9 0.671573 9 1.5V4H4C1.79086 4 0 5.79086 0 8V11V14V33C0 35.2091 1.79086 37 4 37H27C29.2091 37 31 35.2091 31 33V14V11V8C31 5.79086 29.2091 4 27 4H22V1.5C22 0.671573 21.3284 0 20.5 0C19.6716 0 19 0.671573 19 1.5V4H17V1.5C17 0.671573 16.3284 0 15.5 0C14.6716 0 14 0.671573 14 1.5V4H12V1.5C12 0.671573 11.3284 0 10.5 0ZM3 33V14H28V33C28 33.5523 27.5523 34 27 34H4C3.44772 34 3 33.5523 3 33ZM3 8V11H28V8C28 7.44772 27.5523 7 27 7H22V7.5C22 8.32843 21.3284 9 20.5 9C19.6716 9 19 8.32843 19 7.5V7H17V7.5C17 8.32843 16.3284 9 15.5 9C14.6716 9 14 8.32843 14 7.5V7H12V7.5C12 8.32843 11.3284 9 10.5 9C9.67157 9 9 8.32843 9 7.5V7H4C3.44772 7 3 7.44772 3 8ZM13 17C12.4477 17 12 17.4477 12 18C12 18.5523 12.4477 19 13 19H18C18.5523 19 19 18.5523 19 18C19 17.4477 18.5523 17 18 17H13ZM20 18C20 17.4477 20.4477 17 21 17H26C26.5523 17 27 17.4477 27 18C27 18.5523 26.5523 19 26 19H21C20.4477 19 20 18.5523 20 18ZM5 20C4.44772 20 4 20.4477 4 21C4 21.5523 4.44772 22 5 22H10C10.5523 22 11 21.5523 11 21C11 20.4477 10.5523 20 10 20H5ZM12 21C12 20.4477 12.4477 20 13 20H18C18.5523 20 19 20.4477 19 21C19 21.5523 18.5523 22 18 22H13C12.4477 22 12 21.5523 12 21ZM21 20C20.4477 20 20 20.4477 20 21C20 21.5523 20.4477 22 21 22H26C26.5523 22 27 21.5523 27 21C27 20.4477 26.5523 20 26 20H21ZM4 24C4 23.4477 4.44772 23 5 23H10C10.5523 23 11 23.4477 11 24C11 24.5523 10.5523 25 10 25H5C4.44772 25 4 24.5523 4 24ZM13 23C12.4477 23 12 23.4477 12 24C12 24.5523 12.4477 25 13 25H18C18.5523 25 19 24.5523 19 24C19 23.4477 18.5523 23 18 23H13ZM20 24C20 23.4477 20.4477 23 21 23H26C26.5523 23 27 23.4477 27 24C27 24.5523 26.5523 25 26 25H21C20.4477 25 20 24.5523 20 24ZM5 26C4.44772 26 4 26.4477 4 27C4 27.5523 4.44772 28 5 28H10C10.5523 28 11 27.5523 11 27C11 26.4477 10.5523 26 10 26H5ZM12 27C12 26.4477 12.4477 26 13 26H18C18.5523 26 19 26.4477 19 27C19 27.5523 18.5523 28 18 28H13C12.4477 28 12 27.5523 12 27ZM21 26C20.4477 26 20 26.4477 20 27C20 27.5523 20.4477 28 21 28H26C26.5523 28 27 27.5523 27 27C27 26.4477 26.5523 26 26 26H21ZM4 30C4 29.4477 4.44772 29 5 29H10C10.5523 29 11 29.4477 11 30C11 30.5523 10.5523 31 10 31H5C4.44772 31 4 30.5523 4 30ZM13 29C12.4477 29 12 29.4477 12 30C12 30.5523 12.4477 31 13 31H18C18.5523 31 19 30.5523 19 30C19 29.4477 18.5523 29 18 29H13Z" fill="#E05881"/>
</svg>
