<svg width="31" height="37" viewBox="0 0 31 37" fill="none" xmlns="http://www.w3.org/2000/svg">
<rect x="1.5" y="5.5" width="28" height="30" rx="2.5" stroke="#773344" stroke-width="3"/>
<rect x="9" width="3" height="9" rx="1.5" fill="#773344"/>
<rect x="14" width="3" height="9" rx="1.5" fill="#773344"/>
<rect x="19" width="3" height="9" rx="1.5" fill="#773344"/>
<rect y="11" width="31" height="3" fill="#773344"/>
<rect x="12" y="17" width="7" height="2" rx="1" fill="#773344"/>
<rect x="20" y="17" width="7" height="2" rx="1" fill="#773344"/>
<rect x="4" y="20" width="7" height="2" rx="1" fill="#773344"/>
<rect x="12" y="20" width="7" height="2" rx="1" fill="#773344"/>
<rect x="20" y="20" width="7" height="2" rx="1" fill="#773344"/>
<rect x="4" y="23" width="7" height="2" rx="1" fill="#773344"/>
<rect x="12" y="23" width="7" height="2" rx="1" fill="#773344"/>
<rect x="20" y="23" width="7" height="2" rx="1" fill="#773344"/>
<rect x="4" y="26" width="7" height="2" rx="1" fill="#773344"/>
<rect x="12" y="26" width="7" height="2" rx="1" fill="#773344"/>
<rect x="20" y="26" width="7" height="2" rx="1" fill="#773344"/>
<rect x="4" y="29" width="7" height="2" rx="1" fill="#773344"/>
<rect x="12" y="29" width="7" height="2" rx="1" fill="#773344"/>
</svg>
