<svg width="39" height="41" viewBox="0 0 39 41" fill="none" xmlns="http://www.w3.org/2000/svg">
<path fill-rule="evenodd" clip-rule="evenodd" d="M3 3H29V18.5L19.6213 18.5L26.6066 11.5147C27.1924 10.9289 27.1924 9.97918 26.6066 9.3934C26.0208 8.80761 25.0711 8.80761 24.4853 9.3934L14.9393 18.9393C14.3536 19.5251 14.3536 20.4749 14.9393 21.0607L24.4853 30.6066C25.0711 31.1924 26.0208 31.1924 26.6066 30.6066C27.1924 30.0208 27.1924 29.0711 26.6066 28.4853L19.6213 21.5L29 21.5V38H3V3ZM32 21.5V38C32 39.6569 30.6569 41 29 41H3C1.34315 41 0 39.6569 0 38V3C0 1.34315 1.34315 0 3 0H29C30.6569 0 32 1.34315 32 3V18.5H37C37.8284 18.5 38.5 19.1716 38.5 20C38.5 20.8284 37.8284 21.5 37 21.5H32Z" fill="#9CFFFA"/>
</svg>
