<svg width="39" height="41" viewBox="0 0 39 41" fill="none" xmlns="http://www.w3.org/2000/svg">
<path d="M37 21.5C37.8284 21.5 38.5 20.8284 38.5 20C38.5 19.1716 37.8284 18.5 37 18.5L37 21.5ZM14.9393 18.9393C14.3536 19.5251 14.3536 20.4749 14.9393 21.0607L24.4853 30.6066C25.0711 31.1924 26.0208 31.1924 26.6066 30.6066C27.1924 30.0208 27.1924 29.0711 26.6066 28.4853L18.1213 20L26.6066 11.5147C27.1924 10.9289 27.1924 9.97918 26.6066 9.3934C26.0208 8.80761 25.0711 8.80761 24.4853 9.3934L14.9393 18.9393ZM37 18.5L16 18.5L16 21.5L37 21.5L37 18.5Z" fill="#773344"/>
<rect x="1.5" y="1.5" width="29" height="38" rx="1.5" stroke="#773344" stroke-width="3"/>
</svg>
