<svg width="36" height="28" viewBox="0 0 36 28" fill="none" xmlns="http://www.w3.org/2000/svg">
<path d="M32.8359 0.540527H3.16406C1.42158 0.540527 0 1.96056 0 3.70459V24.7983C0 26.5365 1.41525 27.9624 3.16406 27.9624H32.8359C34.5741 27.9624 36 26.5472 36 24.7983V3.70459C36 1.96646 34.5847 0.540527 32.8359 0.540527ZM32.399 2.6499L18.0671 16.9819L3.61118 2.6499H32.399ZM2.10938 24.3616V4.13132L12.2681 14.2029L2.10938 24.3616ZM3.60091 25.853L13.766 15.6879L17.3278 19.2192C17.7401 19.628 18.4055 19.6266 18.8161 19.2159L22.2891 15.743L32.3991 25.853H3.60091ZM33.8906 24.3615L23.7806 14.2515L33.8906 4.14137V24.3615Z" fill="#9CFFFA"/>
</svg>
