<svg width="36" height="28" viewBox="0 0 36 28" fill="none" xmlns="http://www.w3.org/2000/svg">
<path d="M32.8359 0.540771H3.16406C1.42158 0.540771 0 1.9608 0 3.70483V24.7986C0 26.5367 1.41525 27.9626 3.16406 27.9626H32.8359C34.5741 27.9626 36 26.5474 36 24.7986V3.70483C36 1.96671 34.5848 0.540771 32.8359 0.540771ZM32.399 2.65015L18.0671 16.9822L3.61118 2.65015H32.399ZM2.10938 24.3618V4.13156L12.2681 14.2031L2.10938 24.3618ZM3.60091 25.8533L13.766 15.6882L17.3278 19.2194C17.7401 19.6282 18.4055 19.6269 18.8161 19.2162L22.2891 15.7432L32.3991 25.8533H3.60091ZM33.8906 24.3617L23.7806 14.2517L33.8906 4.14162V24.3617Z" fill="#E35A57"/>
</svg>
