<svg width="19" height="48" viewBox="0 0 19 48" fill="none" xmlns="http://www.w3.org/2000/svg">
<path d="M2.30713 31.2748L9.53003 37.422V2.84427C9.53003 1.1538 2.30713 3.76631 2.30713 6.68624V31.2748Z" stroke="#773344" stroke-width="3"/>
<path d="M16.5991 31.2748L9.5299 37.422V2.84427C9.5299 1.15381 16.5991 3.76631 16.5991 6.68623V31.2748Z" stroke="#773344" stroke-width="3"/>
<path d="M8 0H11V43.8261L8 48V0Z" fill="#773344"/>
<rect x="2.73779" y="19.7433" width="11.4917" height="1.5" transform="rotate(51.7579 2.73779 19.7433)" fill="#773344"/>
<rect width="11.4917" height="1.5" transform="matrix(-0.618985 0.785403 0.785403 0.618985 16.2668 19.8156)" fill="#773344"/>
<rect x="2.73145" y="13.9091" width="11.4917" height="1.5" transform="rotate(51.7579 2.73145 13.9091)" fill="#773344"/>
<rect width="11.4917" height="1.5" transform="matrix(-0.618985 0.785403 0.785403 0.618985 16.2605 13.9813)" fill="#773344"/>
<rect x="2.73145" y="8.06921" width="11.4917" height="1.5" transform="rotate(51.7579 2.73145 8.06921)" fill="#773344"/>
<rect width="11.4917" height="1.5" transform="matrix(-0.618985 0.785403 0.785403 0.618985 16.2605 8.14172)" fill="#773344"/>
</svg>
