<svg width="18" height="48" viewBox="0 0 18 48" fill="none" xmlns="http://www.w3.org/2000/svg">
<path fill-rule="evenodd" clip-rule="evenodd" d="M10.4468 0H7.44678V0.855113C6.60509 0.96431 5.64714 1.26753 4.75345 1.66684C3.74668 2.11667 2.69154 2.74628 1.86151 3.51745C1.06789 4.25479 0.253906 5.33713 0.253906 6.68624V6.70356V6.72131V6.73949V6.75809V6.77711V6.79655V6.81641V6.83669V6.85738V6.87848V6.9V6.92192V6.94425V6.96699V6.99013V7.01368V7.03762V7.06196V7.0867V7.11183V7.13736V7.16328V7.18958V7.21628V7.24336V7.27082V7.29867V7.3269V7.3555V7.38448V7.41384V7.44357V7.47367V7.50414V7.53498V7.56618V7.59775V7.62968V7.66197V7.69462V7.72763V7.76099V7.79471V7.82877V7.86319V7.89795V7.93306V7.96852V8.00431V8.04045V8.07693V8.11374V8.15089V8.18837V8.22618V8.26432V8.30279V8.34159V8.38071V8.42015V8.45992V8.5V8.5404V8.58112V8.62215V8.66349V8.70514V8.7471V8.78936V8.83193V8.8748V8.91798V8.96145V9.00522V9.04928V9.09364V9.13829V9.18323V9.22846V9.27397V9.31977V9.36585V9.41222V9.45886V9.50578V9.55297V9.60044V9.64818V9.69619V9.74447V9.79302V9.84183V9.8909V9.94024V9.98983V10.0397V10.0898V10.1401V10.1908V10.2416V10.2927V10.3441V10.3957V10.4475V10.4996V10.552V10.6045V10.6573V10.7104V10.7636V10.8171V10.8708V10.9248V10.979V11.0334V11.088V11.1428V11.1979V11.2532V11.3087V11.3644V11.4203V11.4764V11.5327V11.5892V11.646V11.7029V11.76V11.8174V11.8749V11.9326V11.9906V12.0487V12.107V12.1654V12.2241V12.283V12.342V12.4012V12.4606V12.5202V12.5799V12.6398V12.6999V12.7602V12.8206V12.8812V12.9419V13.0028V13.0639V13.1251V13.1865V13.2481V13.3098V13.3716V13.4336V13.4957V13.558V13.6205V13.683V13.7457V13.8086V13.8716V13.9347V13.9979V14.0613V14.1248V14.1885V14.2523V14.3161V14.3802V14.4443V14.5085V14.5729V14.6374V14.702V14.7667V14.8315V14.8964V14.9615V15.0266V15.0918V15.1572V15.2226V15.2881V15.3538V15.4195V15.4853V15.5512V15.6172V15.6832V15.7494V15.8156V15.882V15.9483V16.0148V16.0814V16.148V16.2147V16.2815V16.3483V16.4152V16.4821V16.5492V16.6163V16.6834V16.7506V16.8179V16.8852V16.9525V17.0199V17.0874V17.1549V17.2224V17.29V17.3577V17.4253V17.493V17.5608V17.6286V17.6964V17.7642V17.8321V17.9V17.9679V18.0358V18.1038V18.1717V18.2397V18.3078V18.3758V18.4438V18.5119V18.5799V18.648V18.716V18.7841V18.8522V18.9202V18.9883V19.0564V19.1244V19.1925V19.2605V19.3285V19.3965V19.4645V19.5325V19.6005V19.6684V19.7363V19.8042V19.8721V19.9399V20.0077V20.0755V20.1432V20.211V20.2786V20.3463V20.4138V20.4814V20.5489V20.6164V20.6838V20.7511V20.8184V20.8857V20.9529V21.02V21.0871V21.1542V21.2211V21.288V21.3548V21.4216V21.4883V21.5549V21.6215V21.688V21.7544V21.8207V21.8869V21.9531V22.0191V22.0851V22.151V22.2168V22.2826V22.3482V22.4137V22.4792V22.5445V22.6097V22.6749V22.7399V22.8048V22.8696V22.9343V22.9989V23.0634V23.1278V23.192V23.2562V23.3202V23.3841V23.4478V23.5115V23.575V23.6384V23.7016V23.7648V23.8278V23.8906V23.9533V24.0159V24.0783V24.1406V24.2028V24.2647V24.3266V24.3883V24.4498V24.5112V24.5725V24.6335V24.6944V24.7552V24.8158V24.8762V24.9365V24.9965V25.0565V25.1162V25.1758V25.2352V25.2944V25.3534V25.4123V25.4709V25.5294V25.5877V25.6458V25.7038V25.7615V25.819V25.8764V25.9335V25.9904V26.0472V26.1037V26.16V26.2162V26.2721V26.3278V26.3833V26.4385V26.4936V26.5484V26.6031V26.6575V26.7116V26.7656V26.8193V26.8728V26.9261V26.9791V27.0319V27.0845V27.1368V27.1889V27.2408V27.2924V27.3437V27.3948V27.4457V27.4963V27.5467V27.5968V27.6467V27.6963V27.7456V27.7947V27.8435V27.892V27.9403V27.9883V28.0361V28.0835V28.1307V28.1777V28.2243V28.2707V28.3168V28.3626V28.4081V28.4533V28.4982V28.5429V28.5873V28.6313V28.6751V28.7186V28.7618V28.8046V28.8472V28.8895V28.9314V28.9731V29.0144V29.0555V29.0962V29.1366V29.1767V29.2164V29.2559V29.295V29.3338V29.3723V29.4104V29.4482V29.4857V29.5229V29.5597V29.5962V29.6323V29.6681V29.7036V29.7387V29.7735V29.8079V29.8419V29.8757V29.909V29.942V29.9747V30.007V30.0389V30.0705V30.1017V30.1326V30.163V30.1931V30.2229V30.2522V30.2812V30.3098V30.3381V30.3659V30.3934V30.4205V30.4472V30.4735V30.4994V30.5249V30.5501V30.5748V30.5991V30.6231V30.6466V30.6698V30.6925V30.7149V30.7368V30.7583V30.7794V30.8001V30.8204V30.8403V30.8597V30.8787V30.8973V30.9155V30.9333V30.9506V30.9675V30.984V31V31.0156V31.0308V31.0455V31.0598V31.0736V31.087V31.1V31.1125V31.1245V31.1362V31.1473V31.158V31.1683V31.178V31.1874V31.1962V31.2046V31.2126V31.2201V31.2271V31.2336V31.2396V31.2452V31.2503V31.255V31.2591V31.2628V31.266V31.2687V31.2709V31.2726V31.2738V31.2746C0.253906 31.2747 0.253906 31.2748 1.75391 31.2748H0.253906V31.9679L0.781728 32.4171L7.44678 38.0895V48L10.4468 43.8261V40.6427L10.4768 40.6683V38.1053L17.0302 32.4067L17.5459 31.9583V31.2748H16.0459C17.5459 31.2748 17.5459 31.2747 17.5459 31.2746V31.2738V31.2726V31.2709V31.2687V31.266V31.2628V31.2591V31.255V31.2503V31.2452V31.2396V31.2336V31.227V31.22V31.2126V31.2046V31.1962V31.1874V31.178V31.1683V31.158V31.1473V31.1362V31.1245V31.1125V31.1V31.087V31.0736V31.0598V31.0455V31.0308V31.0156V31V30.984V30.9675V30.9506V30.9333V30.9155V30.8973V30.8787V30.8597V30.8403V30.8204V30.8001V30.7794V30.7583V30.7368V30.7149V30.6925V30.6698V30.6466V30.6231V30.5991V30.5748V30.55V30.5249V30.4994V30.4735V30.4471V30.4205V30.3934V30.3659V30.338V30.3098V30.2812V30.2522V30.2229V30.1931V30.163V30.1325V30.1017V30.0705V30.0389V30.007V29.9747V29.942V29.909V29.8757V29.8419V29.8079V29.7735V29.7387V29.7036V29.6681V29.6323V29.5962V29.5597V29.5229V29.4857V29.4482V29.4104V29.3723V29.3338V29.295V29.2559V29.2164V29.1767V29.1366V29.0962V29.0555V29.0144V28.9731V28.9314V28.8895V28.8472V28.8046V28.7617V28.7186V28.6751V28.6313V28.5873V28.5429V28.4982V28.4533V28.4081V28.3626V28.3167V28.2707V28.2243V28.1777V28.1307V28.0835V28.0361V27.9883V27.9403V27.892V27.8435V27.7947V27.7456V27.6962V27.6467V27.5968V27.5467V27.4963V27.4457V27.3948V27.3437V27.2924V27.2408V27.1889V27.1368V27.0845V27.0319V26.9791V26.9261V26.8728V26.8193V26.7656V26.7116V26.6575V26.6031V26.5484V26.4936V26.4385V26.3833V26.3278V26.2721V26.2161V26.16V26.1037V26.0472V25.9904V25.9335V25.8763V25.819V25.7615V25.7038V25.6458V25.5877V25.5294V25.4709V25.4123V25.3534V25.2944V25.2352V25.1758V25.1162V25.0565V24.9965V24.9365V24.8762V24.8158V24.7552V24.6944V24.6335V24.5724V24.5112V24.4498V24.3883V24.3266V24.2647V24.2027V24.1406V24.0783V24.0159V23.9533V23.8906V23.8277V23.7648V23.7016V23.6384V23.575V23.5115V23.4478V23.3841V23.3202V23.2562V23.192V23.1278V23.0634V22.9989V22.9343V22.8696V22.8048V22.7399V22.6749V22.6097V22.5445V22.4791V22.4137V22.3482V22.2826V22.2168V22.151V22.0851V22.0191V21.9531V21.8869V21.8207V21.7543V21.6879V21.6215V21.5549V21.4883V21.4216V21.3548V21.288V21.2211V21.1541V21.0871V21.02V20.9529V20.8857V20.8184V20.7511V20.6838V20.6164V20.5489V20.4814V20.4138V20.3463V20.2786V20.211V20.1432V20.0755V20.0077V19.9399V19.8721V19.8042V19.7363V19.6684V19.6005V19.5325V19.4645V19.3965V19.3285V19.2605V19.1925V19.1244V19.0564V18.9883V18.9202V18.8522V18.7841V18.716V18.648V18.5799V18.5119V18.4438V18.3758V18.3077V18.2397V18.1717V18.1038V18.0358V17.9679V17.9V17.8321V17.7642V17.6964V17.6286V17.5608V17.493V17.4253V17.3577V17.29V17.2224V17.1549V17.0874V17.0199V16.9525V16.8852V16.8178V16.7506V16.6834V16.6162V16.5492V16.4821V16.4152V16.3483V16.2814V16.2147V16.148V16.0814V16.0148V15.9483V15.8819V15.8156V15.7494V15.6832V15.6172V15.5512V15.4853V15.4195V15.3537V15.2881V15.2226V15.1572V15.0918V15.0266V14.9615V14.8964V14.8315V14.7667V14.702V14.6374V14.5729V14.5085V14.4443V14.3801V14.3161V14.2522V14.1885V14.1248V14.0613V13.9979V13.9347V13.8716V13.8086V13.7457V13.683V13.6204V13.558V13.4957V13.4336V13.3716V13.3098V13.2481V13.1865V13.1251V13.0639V13.0028V12.9419V12.8812V12.8206V12.7602V12.6999V12.6398V12.5799V12.5202V12.4606V12.4012V12.342V12.283V12.2241V12.1654V12.107V12.0487V11.9906V11.9326V11.8749V11.8174V11.76V11.7029V11.646V11.5892V11.5327V11.4764V11.4203V11.3643V11.3086V11.2532V11.1979V11.1428V11.088V11.0334V10.979V10.9248V10.8708V10.8171V10.7636V10.7103V10.6573V10.6045V10.5519V10.4996V10.4475V10.3957V10.3441V10.2927V10.2416V10.1908V10.1401V10.0898V10.0397V9.98982V9.94023V9.8909V9.84182V9.79301V9.74447V9.69619V9.64818V9.60044V9.55297V9.50577V9.45885V9.41221V9.36585V9.31977V9.27397V9.22845V9.18322V9.13828V9.09363V9.04928V9.00521V8.96144V8.91797V8.8748V8.83193V8.78936V8.74709V8.70513V8.66348V8.62214V8.58111V8.5404V8.5V8.45991V8.42015V8.38071V8.34159V8.30279V8.26432V8.22618V8.18836V8.15088V8.11373V8.07692V8.04045V8.00431V7.96851V7.93306V7.89795V7.86318V7.82877V7.7947V7.76099V7.72762V7.69462V7.66197V7.62968V7.59775V7.56618V7.53497V7.50414V7.47367V7.44356V7.41383V7.38448V7.3555V7.32689V7.29866V7.27082V7.24335V7.21627V7.18958V7.16327V7.13735V7.11183V7.0867V7.06196V7.03761V7.01367V6.99013V6.96699V6.94425V6.92192V6.89999V6.87848V6.85737V6.83668V6.81641V6.79655V6.7771V6.75808V6.73948V6.72131V6.70356V6.68623C17.5459 5.34987 16.7556 4.2704 15.974 3.52847C15.1594 2.75512 14.1233 2.12337 13.1342 1.67182C12.2447 1.26575 11.2872 0.957202 10.4468 0.851046V0ZM7.44678 3.90049V14.7544L3.25391 9.43425V9.41222V9.36585V9.31977V9.27397V9.22846V9.18323V9.13829V9.09364V9.04928V9.00522V8.96145V8.91798V8.8748V8.83193V8.78936V8.7471V8.70514V8.66349V8.62215V8.58112V8.5404V8.5V8.45992V8.42015V8.38071V8.34159V8.30279V8.26432V8.22618V8.18837V8.15089V8.11374V8.07693V8.04045V8.00431V7.96852V7.93306V7.89795V7.86319V7.82877V7.79471V7.76099V7.72763V7.69462V7.66197V7.62968V7.59775V7.56618V7.53498V7.50414V7.47367V7.44357V7.41384V7.38448V7.3555V7.3269V7.29867V7.27082V7.24336V7.21628V7.18958V7.16328V7.13736V7.11183V7.0867V7.06196V7.03762V7.01368V6.99013V6.96699V6.94425V6.92192V6.9V6.87848V6.85738V6.83669V6.81641V6.79655V6.77711V6.75809V6.73949V6.72131V6.70356V6.68624C3.25391 6.57538 3.34278 6.23619 3.90346 5.71528C4.42772 5.2282 5.1783 4.76285 5.97726 4.40587C6.52427 4.16147 7.03482 3.99412 7.44678 3.90049ZM3.25391 11.8576L7.44678 17.1777V20.5942L3.25391 15.2741V15.2226V15.1572V15.0918V15.0266V14.9615V14.8964V14.8315V14.7667V14.702V14.6374V14.5729V14.5085V14.4443V14.3802V14.3161V14.2523V14.1885V14.1248V14.0613V13.9979V13.9347V13.8716V13.8086V13.7457V13.683V13.6205V13.558V13.4957V13.4336V13.3716V13.3098V13.2481V13.1865V13.1251V13.0639V13.0028V12.9419V12.8812V12.8206V12.7602V12.6999V12.6398V12.5799V12.5202V12.4606V12.4012V12.342V12.283V12.2241V12.1654V12.107V12.0487V11.9906V11.9326V11.8749V11.8576ZM3.25391 17.6974L7.44678 23.0176V26.4204L3.25391 21.1003V21.0871V21.02V20.9529V20.8857V20.8184V20.7511V20.6838V20.6164V20.5489V20.4814V20.4138V20.3463V20.2786V20.211V20.1432V20.0755V20.0077V19.9399V19.8721V19.8042V19.7363V19.6684V19.6005V19.5325V19.4645V19.3965V19.3285V19.2605V19.1925V19.1244V19.0564V18.9883V18.9202V18.8522V18.7841V18.716V18.648V18.5799V18.5119V18.4438V18.3758V18.3078V18.2397V18.1717V18.1038V18.0358V17.9679V17.9V17.8321V17.7642V17.6974ZM3.25391 23.5236L7.44678 28.8437V34.1501L3.25391 30.5817V30.5748V30.5501V30.5249V30.4994V30.4735V30.4472V30.4205V30.3934V30.3659V30.3381V30.3098V30.2812V30.2522V30.2229V30.1931V30.163V30.1326V30.1017V30.0705V30.0389V30.007V29.9747V29.942V29.909V29.8757V29.8419V29.8079V29.7735V29.7387V29.7036V29.6681V29.6323V29.5962V29.5597V29.5229V29.4857V29.4482V29.4104V29.3723V29.3338V29.295V29.2559V29.2164V29.1767V29.1366V29.0962V29.0555V29.0144V28.9731V28.9314V28.8895V28.8472V28.8046V28.7618V28.7186V28.6751V28.6313V28.5873V28.5429V28.4982V28.4533V28.4081V28.3626V28.3168V28.2707V28.2243V28.1777V28.1307V28.0835V28.0361V27.9883V27.9403V27.892V27.8435V27.7947V27.7456V27.6963V27.6467V27.5968V27.5467V27.4963V27.4457V27.3948V27.3437V27.2924V27.2408V27.1889V27.1368V27.0845V27.0319V26.9791V26.9261V26.8728V26.8193V26.7656V26.7116V26.6575V26.6031V26.5484V26.4936V26.4385V26.3833V26.3278V26.2721V26.2162V26.16V26.1037V26.0472V25.9904V25.9335V25.8764V25.819V25.7615V25.7038V25.6458V25.5877V25.5294V25.4709V25.4123V25.3534V25.2944V25.2352V25.1758V25.1162V25.0565V24.9965V24.9365V24.8762V24.8158V24.7552V24.6944V24.6335V24.5725V24.5112V24.4498V24.3883V24.3266V24.2647V24.2028V24.1406V24.0783V24.0159V23.9533V23.8906V23.8278V23.7648V23.7016V23.6384V23.575V23.5236ZM14.5459 30.5914L10.4768 34.1297V34.0746V34.013V33.9509V33.8883V33.8253V33.7618V33.6979V33.6335V33.5687V33.5035V33.4378V33.3717V33.3051V33.2381V33.1707V33.1029V33.0346V32.966V32.8969V32.8274V32.7575V32.6872V32.6165V32.5453V32.4738V32.4019V32.3296V32.2569V32.1839V32.1104V32.0366V31.9624V31.8878V31.8128V31.7375V31.6618V31.5857V31.5093V31.4325V31.3554V31.2779V31.2001V31.1219V31.0434V30.9645V30.8853V30.8058V30.7259V30.6457V30.5652V30.4844V30.4032V30.3217V30.2399V30.1578V30.0754V29.9927V29.9097V29.8264V29.7427V29.6588V29.5746V29.4901V29.4053V29.3203V29.2349V29.1493V29.0634V28.9773V28.8908V28.8835L14.5459 23.7204V23.7648V23.8277V23.8906V23.9533V24.0159V24.0783V24.1406V24.2027V24.2647V24.3266V24.3883V24.4498V24.5112V24.5724V24.6335V24.6944V24.7552V24.8158V24.8762V24.9365V24.9965V25.0565V25.1162V25.1758V25.2352V25.2944V25.3534V25.4123V25.4709V25.5294V25.5877V25.6458V25.7038V25.7615V25.819V25.8763V25.9335V25.9904V26.0472V26.1037V26.16V26.2161V26.2721V26.3278V26.3833V26.4385V26.4936V26.5484V26.6031V26.6575V26.7116V26.7656V26.8193V26.8728V26.9261V26.9791V27.0319V27.0845V27.1368V27.1889V27.2408V27.2924V27.3437V27.3948V27.4457V27.4963V27.5467V27.5968V27.6467V27.6962V27.7456V27.7947V27.8435V27.892V27.9403V27.9883V28.0361V28.0835V28.1307V28.1777V28.2243V28.2707V28.3167V28.3626V28.4081V28.4533V28.4982V28.5429V28.5873V28.6313V28.6751V28.7186V28.7617V28.8046V28.8472V28.8895V28.9314V28.9731V29.0144V29.0555V29.0962V29.1366V29.1767V29.2164V29.2559V29.295V29.3338V29.3723V29.4104V29.4482V29.4857V29.5229V29.5597V29.5962V29.6323V29.6681V29.7036V29.7387V29.7735V29.8079V29.8419V29.8757V29.909V29.942V29.9747V30.007V30.0389V30.0705V30.1017V30.1325V30.163V30.1931V30.2229V30.2522V30.2812V30.3098V30.338V30.3659V30.3934V30.4205V30.4471V30.4735V30.4994V30.5249V30.55V30.5748V30.5914ZM14.5459 21.2971L10.4768 26.4602V26.3732V26.2803V26.1871V26.0938V26.0002V25.9066V25.8127V25.7187V25.6245V25.5301V25.4356V25.3409V25.2461V25.1511V25.056V24.9607V24.8653V24.7697V24.674V24.5782V24.4823V24.3862V24.29V24.1936V24.0972V24.0006V23.9039V23.8071V23.7102V23.6132V23.5161V23.4189V23.3216V23.2242V23.1267V23.0412L14.5459 17.8781V17.9V17.9679V18.0358V18.1038V18.1717V18.2397V18.3077V18.3758V18.4438V18.5119V18.5799V18.648V18.716V18.7841V18.8522V18.9202V18.9883V19.0564V19.1244V19.1925V19.2605V19.3285V19.3965V19.4645V19.5325V19.6005V19.6684V19.7363V19.8042V19.8721V19.9399V20.0077V20.0755V20.1432V20.211V20.2786V20.3463V20.4138V20.4814V20.5489V20.6164V20.6838V20.7511V20.8184V20.8857V20.9529V21.02V21.0871V21.1541V21.2211V21.288V21.2971ZM14.5459 15.4548L10.4768 20.6179V20.5694V20.4705V20.3716V20.2727V20.1739V20.075V19.9761V19.8772V19.7783V19.6794V19.5806V19.4817V19.3829V19.2841V19.1853V19.0866V18.9878V18.8891V18.7905V18.6919V18.5933V18.4948V18.3963V18.2978V18.1994V18.1011V18.0028V17.9046V17.8065V17.7084V17.6104V17.5124V17.4146V17.3168V17.2191V17.2016L14.5459 12.0385V12.0487V12.107V12.1654V12.2241V12.283V12.342V12.4012V12.4606V12.5202V12.5799V12.6398V12.6999V12.7602V12.8206V12.8812V12.9419V13.0028V13.0639V13.1251V13.1865V13.2481V13.3098V13.3716V13.4336V13.4957V13.558V13.6204V13.683V13.7457V13.8086V13.8716V13.9347V13.9979V14.0613V14.1248V14.1885V14.2522V14.3161V14.3801V14.4443V14.5085V14.5729V14.6374V14.702V14.7667V14.8315V14.8964V14.9615V15.0266V15.0918V15.1572V15.2226V15.2881V15.3537V15.4195V15.4548ZM14.5459 9.61517L10.4768 14.7783V14.7165V14.622V14.5278V14.4336V14.3397V14.2459V14.1523V14.0589V13.9656V13.8726V13.7797V13.687V13.5945V13.5021V13.41V13.3181V13.2264V13.1349V13.0436V12.9525V12.8616V12.7709V12.6804V12.5902V12.5002V12.4104V12.3209V12.2315V12.1425V12.0536V11.965V11.8767V11.7885V11.7007V11.6131V11.5257V11.4386V11.3518V11.2652V11.1789V11.0929V11.0071V10.9216V10.8364V10.7515V10.6669V10.5825V10.4985V10.4147V10.3312V10.248V10.1652V10.0826V10.0003V9.91839V9.83675V9.75543V9.67443V9.59374V9.51338V9.43335V9.35365V9.27429V9.19525V9.11656V9.03821V8.9602V8.88254V8.80523V8.72828V8.65168V8.57544V8.49956V8.42404V8.34889V8.27412V8.19971V8.12568V8.05203V7.97877V7.90588V7.83339V7.76128V7.68957V7.61825V7.54734V7.47682V7.40671V7.33701V7.26771V7.19883V7.13037V7.06232V6.9947V6.9275V6.86073V6.79439V6.72849V6.66301V6.59798V6.53339V6.46925V6.40555V6.3423V6.27951V6.21717V6.15529V6.09388V6.03292V5.97244V5.91243V5.85289V5.79382V5.73524V5.67714V5.61952V5.56239V5.50575V5.4496V5.39395V5.3388V5.28415V5.23001V5.17637V5.12325V5.07064V5.01854V4.96696V4.91591V4.86538V4.81538V4.76591V4.71697V4.66857V4.62071V4.57339V4.52662V4.48039V4.43472V4.38959V4.34503V4.30102V4.25758V4.2147V4.17239V4.13065V4.08948V4.04889V4.00888V3.96945V3.93061V3.90279C10.8721 3.99597 11.362 4.16058 11.8884 4.40089C12.6665 4.75615 13.3978 5.21936 13.9086 5.70425C14.4525 6.22057 14.5459 6.56263 14.5459 6.68623V6.70356V6.72131V6.73948V6.75808V6.7771V6.79655V6.81641V6.83668V6.85737V6.87848V6.89999V6.92192V6.94425V6.96699V6.99013V7.01367V7.03761V7.06196V7.0867V7.11183V7.13735V7.16327V7.18958V7.21627V7.24335V7.27082V7.29866V7.32689V7.3555V7.38448V7.41383V7.44356V7.47367V7.50414V7.53497V7.56618V7.59775V7.62968V7.66197V7.69462V7.72762V7.76099V7.7947V7.82877V7.86318V7.89795V7.93306V7.96851V8.00431V8.04045V8.07692V8.11373V8.15088V8.18836V8.22618V8.26432V8.30279V8.34159V8.38071V8.42015V8.45991V8.5V8.5404V8.58111V8.62214V8.66348V8.70513V8.74709V8.78936V8.83193V8.8748V8.91797V8.96144V9.00521V9.04928V9.09363V9.13828V9.18322V9.22845V9.27397V9.31977V9.36585V9.41221V9.45885V9.50577V9.55297V9.60044V9.61517Z" fill="#E35A57"/>
</svg>
