<svg width="48" height="48" viewBox="0 0 48 48" fill="none" xmlns="http://www.w3.org/2000/svg">
<path d="M23.9999 19.3549C21.1847 19.3549 18.7805 21.1205 17.8064 23.6129C18.7805 26.1053 21.1847 27.871 23.9999 27.871C26.8152 27.871 29.2194 26.1053 30.1935 23.6129C29.2194 21.1205 26.8152 19.3549 23.9999 19.3549ZM23.9999 26.4516C22.4459 26.4516 21.1847 25.1799 21.1847 23.6129C21.1847 22.046 22.4459 20.7742 23.9999 20.7742C25.554 20.7742 26.8152 22.046 26.8152 23.6129C26.8152 25.1799 25.554 26.4516 23.9999 26.4516ZM23.9999 21.9097C23.0653 21.9097 22.3108 22.6705 22.3108 23.6129C22.3108 24.5554 23.0653 25.3161 23.9999 25.3161C24.9346 25.3161 25.6891 24.5554 25.6891 23.6129C25.6891 22.6705 24.9346 21.9097 23.9999 21.9097Z" fill="#773344"/>
<path d="M5.81347 34.5L24 3L42.1865 34.5H5.81347Z" stroke="#773344" stroke-width="3"/>
</svg>
