<svg width="42" height="36" viewBox="0 0 42 36" fill="none" xmlns="http://www.w3.org/2000/svg">
<path fill-rule="evenodd" clip-rule="evenodd" d="M19.2679 3L20.9999 0L22.732 3L40.0525 33L41.7845 36H38.3204H3.67943H0.215332L1.94738 33L19.2679 3ZM5.41148 33L20.9999 6L36.5884 33H5.41148ZM14.8063 23.6129C15.7804 21.1205 18.1846 19.3549 20.9999 19.3549C23.8151 19.3549 26.2194 21.1205 27.1934 23.6129C26.2194 26.1053 23.8151 27.871 20.9999 27.871C18.1846 27.871 15.7804 26.1053 14.8063 23.6129ZM18.1846 23.6129C18.1846 25.1799 19.4459 26.4516 20.9999 26.4516C22.5539 26.4516 23.8151 25.1799 23.8151 23.6129C23.8151 22.046 22.5539 20.7742 20.9999 20.7742C19.4459 20.7742 18.1846 22.046 18.1846 23.6129ZM19.3107 23.6129C19.3107 22.6705 20.0652 21.9097 20.9999 21.9097C21.9345 21.9097 22.689 22.6705 22.689 23.6129C22.689 24.5554 21.9345 25.3161 20.9999 25.3161C20.0652 25.3161 19.3107 24.5554 19.3107 23.6129Z" fill="#E05881"/>
</svg>
