<svg width="45" height="37" viewBox="0 0 45 37" fill="none" xmlns="http://www.w3.org/2000/svg">
<mask id="path-1-inside-1" fill="white">
<path fill-rule="evenodd" clip-rule="evenodd" d="M38 16C38 15.4477 37.5523 15 37 15H8C7.44772 15 7 15.4477 7 16V36C7 36.5523 7.44772 37 8 37H18C18.5523 37 19 36.5523 19 36V29C19 28.4477 19.4477 28 20 28H25C25.5523 28 26 28.4477 26 29V36C26 36.5523 26.4477 37 27 37H37C37.5523 37 38 36.5523 38 36V16Z"/>
</mask>
<path d="M8 18H37V12H8V18ZM10 36V16H4V36H10ZM18 34H8V40H18V34ZM22 36V29H16V36H22ZM20 31H25V25H20V31ZM23 29V36H29V29H23ZM37 34H27V40H37V34ZM35 16V36H41V16H35ZM37 40C39.2091 40 41 38.2091 41 36H35C35 34.8954 35.8954 34 37 34V40ZM23 36C23 38.2091 24.7909 40 27 40V34C28.1046 34 29 34.8954 29 36H23ZM25 31C23.8954 31 23 30.1046 23 29H29C29 26.7909 27.2091 25 25 25V31ZM22 29C22 30.1046 21.1046 31 20 31V25C17.7909 25 16 26.7909 16 29H22ZM18 40C20.2091 40 22 38.2091 22 36H16C16 34.8954 16.8954 34 18 34V40ZM4 36C4 38.2091 5.79086 40 8 40V34C9.10457 34 10 34.8954 10 36H4ZM37 18C35.8954 18 35 17.1046 35 16H41C41 13.7909 39.2091 12 37 12V18ZM8 12C5.79086 12 4 13.7909 4 16H10C10 17.1046 9.10457 18 8 18V12Z" fill="#773344" mask="url(#path-1-inside-1)"/>
<path d="M6.84882 16.5L22.5 2.04206L38.1512 16.5H6.84882Z" stroke="#773344" stroke-width="3"/>
</svg>
