<svg width="39" height="37" viewBox="0 0 39 37" fill="none" xmlns="http://www.w3.org/2000/svg">
<path fill-rule="evenodd" clip-rule="evenodd" d="M7.68316 15L19.5 4.08409L31.3167 15H7.68316ZM3.99995 18H3.7504H1.75439H1.29251C0.837444 18 0.618965 17.4415 0.953235 17.1327L1.29251 16.8193L2.75869 15.4649L3.26198 15L19.1607 0.313387C19.3522 0.136423 19.6477 0.136423 19.8392 0.313388L35.7379 15L36.2412 15.4649L37.7074 16.8193L38.0467 17.1327C38.3809 17.4415 38.1625 18 37.7074 18H37.2455H35.2495H35V36C35 36.5523 34.5522 37 34 37H24C23.4477 37 23 36.5523 23 36V29C23 28.4477 22.5522 28 22 28H17C16.4477 28 16 28.4477 16 29V36C16 36.5523 15.5522 37 15 37H4.99995C4.44767 37 3.99995 36.5523 3.99995 36V18ZM6.99995 18V34H13V29C13 26.7908 14.7908 25 17 25H22C24.2091 25 26 26.7908 26 29V34H32V18H6.99995Z" fill="#E35A57"/>
</svg>
