<svg width="36" height="37" viewBox="0 0 36 37" fill="none" xmlns="http://www.w3.org/2000/svg">
<g clip-path="url(#clip0)">
<path d="M35.9648 11.1246C35.8804 9.21181 35.5711 7.89676 35.128 6.75726C34.6709 5.5477 33.9676 4.46479 33.0462 3.56456C32.146 2.65031 31.0559 1.93991 29.8604 1.48993C28.7143 1.04682 27.4061 0.737496 25.4933 0.653159C23.5662 0.56168 22.9544 0.540527 18.0667 0.540527C13.1791 0.540527 12.5673 0.56168 10.6473 0.646017C8.73451 0.730353 7.41946 1.03995 6.28023 1.48279C5.0704 1.93991 3.98749 2.64317 3.08726 3.56456C2.17302 4.46479 1.46289 5.55484 1.01264 6.75039C0.569526 7.89676 0.260201 9.20467 0.175864 11.1175C0.0843852 13.0446 0.0632324 13.6564 0.0632324 18.544C0.0632324 23.4317 0.0843852 24.0435 0.168722 25.9635C0.253058 27.8763 0.562658 29.1913 1.00577 30.3308C1.46289 31.5404 2.17302 32.6233 3.08726 33.5235C3.98749 34.4378 5.07755 35.1482 6.27309 35.5982C7.41946 36.0413 8.72737 36.3506 10.6405 36.4349C12.5601 36.5195 13.1722 36.5404 18.0599 36.5404C22.9475 36.5404 23.5593 36.5195 25.4793 36.4349C27.3921 36.3506 28.7072 36.0413 29.8464 35.5982C32.2658 34.6628 34.1786 32.7499 35.114 30.3308C35.5568 29.1845 35.8664 27.8763 35.9508 25.9635C36.0351 24.0435 36.0562 23.4317 36.0562 18.544C36.0562 13.6564 36.0491 13.0446 35.9648 11.1246ZM32.7229 25.8228C32.6454 27.581 32.3501 28.5304 32.104 29.1633C31.499 30.7316 30.2543 31.9764 28.686 32.5813C28.0531 32.8274 27.0968 33.1227 25.3455 33.1999C23.4467 33.2845 22.8772 33.3054 18.0739 33.3054C13.2705 33.3054 12.6939 33.2845 10.802 33.1999C9.04383 33.1227 8.09443 32.8274 7.46149 32.5813C6.68104 32.2928 5.97063 31.8357 5.39401 31.2379C4.79624 30.6542 4.33912 29.9509 4.05067 29.1704C3.80453 28.5375 3.50922 27.581 3.43202 25.83C3.34741 23.9311 3.32653 23.3614 3.32653 18.5581C3.32653 13.7547 3.34741 13.1781 3.43202 11.2864C3.50922 9.52828 3.80453 8.57887 4.05067 7.94594C4.33912 7.1652 4.79624 6.45507 5.40116 5.87818C5.98464 5.28041 6.68791 4.82329 7.46864 4.53511C8.10157 4.28897 9.05812 3.99366 10.8091 3.91619C12.7079 3.83185 13.2777 3.8107 18.0808 3.8107C22.8912 3.8107 23.4607 3.83185 25.3526 3.91619C27.1108 3.99366 28.0602 4.28897 28.6931 4.53511C29.4736 4.82329 30.184 5.28041 30.7606 5.87818C31.3584 6.46194 31.8155 7.1652 32.104 7.94594C32.3501 8.57887 32.6454 9.53514 32.7229 11.2864C32.8072 13.1852 32.8284 13.7547 32.8284 18.5581C32.8284 23.3614 32.8072 23.924 32.7229 25.8228Z" fill="#9CFFFA"/>
<path d="M18.0667 9.2959C12.9612 9.2959 8.81885 13.438 8.81885 18.5438C8.81885 23.6496 12.9612 27.7917 18.0667 27.7917C23.1725 27.7917 27.3146 23.6496 27.3146 18.5438C27.3146 13.438 23.1725 9.2959 18.0667 9.2959ZM18.0667 24.5427C14.7545 24.5427 12.0679 21.8563 12.0679 18.5438C12.0679 15.2313 14.7545 12.5449 18.0667 12.5449C21.3792 12.5449 24.0656 15.2313 24.0656 18.5438C24.0656 21.8563 21.3792 24.5427 18.0667 24.5427V24.5427Z" fill="#9CFFFA"/>
<path d="M29.8396 8.93045C29.8396 10.1227 28.8728 11.0894 27.6803 11.0894C26.4881 11.0894 25.5214 10.1227 25.5214 8.93045C25.5214 7.73792 26.4881 6.77148 27.6803 6.77148C28.8728 6.77148 29.8396 7.73792 29.8396 8.93045V8.93045Z" fill="#9CFFFA"/>
</g>
<defs>
<clipPath id="clip0">
<rect width="36" height="36" fill="white" transform="translate(0 0.540527)"/>
</clipPath>
</defs>
</svg>
