<svg width="36" height="37" viewBox="0 0 36 37" fill="none" xmlns="http://www.w3.org/2000/svg">
<g clip-path="url(#clip0)">
<path d="M35.9648 11.1249C35.8804 9.21205 35.5711 7.89701 35.128 6.7575C34.6709 5.54794 33.9676 4.46503 33.0462 3.5648C32.146 2.65056 31.0559 1.94015 29.8604 1.49018C28.7143 1.04707 27.4061 0.73774 25.4933 0.653403C23.5662 0.561924 22.9544 0.540771 18.0667 0.540771C13.1791 0.540771 12.5673 0.561924 10.6473 0.646261C8.73451 0.730597 7.41946 1.0402 6.28023 1.48303C5.0704 1.94015 3.98749 2.64342 3.08726 3.5648C2.17302 4.46503 1.46289 5.55509 1.01264 6.75063C0.569526 7.89701 0.260201 9.20491 0.175864 11.1177C0.0843852 13.0448 0.0632324 13.6566 0.0632324 18.5443C0.0632324 23.432 0.0843852 24.0437 0.168722 25.9637C0.253058 27.8765 0.562658 29.1916 1.00577 30.3311C1.46289 31.5406 2.17302 32.6235 3.08726 33.5238C3.98749 34.438 5.07755 35.1484 6.27309 35.5984C7.41946 36.0415 8.72737 36.3508 10.6405 36.4352C12.5601 36.5198 13.1722 36.5407 18.0599 36.5407C22.9475 36.5407 23.5593 36.5198 25.4793 36.4352C27.3921 36.3508 28.7072 36.0415 29.8464 35.5984C32.2658 34.663 34.1786 32.7502 35.114 30.3311C35.5568 29.1847 35.8664 27.8765 35.9508 25.9637C36.0351 24.0437 36.0562 23.432 36.0562 18.5443C36.0562 13.6566 36.0491 13.0448 35.9648 11.1249ZM32.7229 25.8231C32.6454 27.5812 32.3501 28.5306 32.104 29.1636C31.499 30.7319 30.2543 31.9766 28.686 32.5815C28.0531 32.8277 27.0968 33.123 25.3455 33.2002C23.4467 33.2848 22.8772 33.3057 18.0739 33.3057C13.2705 33.3057 12.6939 33.2848 10.802 33.2002C9.04383 33.123 8.09443 32.8277 7.46149 32.5815C6.68104 32.2931 5.97063 31.8359 5.39401 31.2382C4.79624 30.6544 4.33912 29.9511 4.05067 29.1707C3.80453 28.5378 3.50922 27.5812 3.43202 25.8302C3.34741 23.9314 3.32653 23.3616 3.32653 18.5583C3.32653 13.755 3.34741 13.1783 3.43202 11.2867C3.50922 9.52852 3.80453 8.57912 4.05067 7.94618C4.33912 7.16545 4.79624 6.45532 5.40116 5.87842C5.98464 5.28065 6.68791 4.82353 7.46864 4.53536C8.10157 4.28921 9.05812 3.9939 10.8091 3.91643C12.7079 3.83209 13.2777 3.81094 18.0808 3.81094C22.8912 3.81094 23.4607 3.83209 25.3526 3.91643C27.1108 3.9939 28.0602 4.28921 28.6931 4.53536C29.4736 4.82353 30.184 5.28065 30.7606 5.87842C31.3584 6.46219 31.8155 7.16545 32.104 7.94618C32.3501 8.57912 32.6454 9.53539 32.7229 11.2867C32.8072 13.1855 32.8284 13.755 32.8284 18.5583C32.8284 23.3616 32.8072 23.9242 32.7229 25.8231Z" fill="#773344"/>
<path d="M18.0667 9.29639C12.9612 9.29639 8.81885 13.4385 8.81885 18.5443C8.81885 23.6501 12.9612 27.7922 18.0667 27.7922C23.1725 27.7922 27.3146 23.6501 27.3146 18.5443C27.3146 13.4385 23.1725 9.29639 18.0667 9.29639ZM18.0667 24.5432C14.7545 24.5432 12.0679 21.8568 12.0679 18.5443C12.0679 15.2318 14.7545 12.5454 18.0667 12.5454C21.3792 12.5454 24.0656 15.2318 24.0656 18.5443C24.0656 21.8568 21.3792 24.5432 18.0667 24.5432V24.5432Z" fill="#773344"/>
<path d="M29.8396 8.93069C29.8396 10.1229 28.8728 11.0897 27.6803 11.0897C26.4881 11.0897 25.5214 10.1229 25.5214 8.93069C25.5214 7.73816 26.4881 6.77173 27.6803 6.77173C28.8728 6.77173 29.8396 7.73816 29.8396 8.93069V8.93069Z" fill="#773344"/>
</g>
<defs>
<clipPath id="clip0">
<rect width="36" height="36" fill="white" transform="translate(0 0.540771)"/>
</clipPath>
</defs>
</svg>
