<svg width="34" height="43" viewBox="0 0 34 43" fill="none" xmlns="http://www.w3.org/2000/svg">
<path fill-rule="evenodd" clip-rule="evenodd" d="M4 8H30C30.5523 8 31 8.44771 31 9V39C31 39.5523 30.5523 40 30 40H4C3.44772 40 3 39.5523 3 39V9C3 8.44772 3.44772 8 4 8ZM0 9C0 6.79086 1.79086 5 4 5H30C32.2091 5 34 6.79086 34 9V39C34 41.2091 32.2091 43 30 43H4C1.79086 43 0 41.2091 0 39V9ZM7.5 16C6.67157 16 6 16.6716 6 17.5C6 18.3284 6.67157 19 7.5 19H25.5C26.3284 19 27 18.3284 27 17.5C27 16.6716 26.3284 16 25.5 16H7.5ZM6 25.5C6 24.6716 6.67157 24 7.5 24H24.5C25.3284 24 26 24.6716 26 25.5C26 26.3284 25.3284 27 24.5 27H7.5C6.67157 27 6 26.3284 6 25.5ZM7.5 20C6.67157 20 6 20.6716 6 21.5C6 22.3284 6.67157 23 7.5 23H20.5C21.3284 23 22 22.3284 22 21.5C22 20.6716 21.3284 20 20.5 20H7.5ZM6 29.5C6 28.6716 6.67157 28 7.5 28H25.5C26.3284 28 27 28.6716 27 29.5C27 30.3284 26.3284 31 25.5 31H7.5C6.67157 31 6 30.3284 6 29.5ZM7.5 32C6.67157 32 6 32.6716 6 33.5C6 34.3284 6.67157 35 7.5 35H23.5C24.3284 35 25 34.3284 25 33.5C25 32.6716 24.3284 32 23.5 32H7.5Z" fill="#E05881"/>
<mask id="mask0" mask-type="alpha" maskUnits="userSpaceOnUse" x="8" y="0" width="18" height="5">
<rect x="8" width="18" height="5" fill="#773344"/>
</mask>
<g mask="url(#mask0)">
<circle cx="16.5" cy="5.5" r="5.5" fill="#E05881"/>
</g>
</svg>
