<svg width="26" height="34" viewBox="0 0 26 34" fill="none" xmlns="http://www.w3.org/2000/svg">
<circle cx="12.9999" cy="5.57143" r="5.57143" fill="#773344"/>
<path fill-rule="evenodd" clip-rule="evenodd" d="M8.91416 12.3809L17.0856 12.3809C17.0856 12.3809 17.0856 12.381 17.0855 12.3811H8.91427C8.9142 12.3809 8.91416 12.3809 8.91416 12.3809ZM8.91427 12.3811H3C1.34315 12.3811 0 13.7243 0 15.3811V30.924C0 32.5808 1.34315 33.924 3 33.924H23C24.6569 33.924 26 32.5808 26 30.924V15.3811C26 13.7243 24.6569 12.3811 23 12.3811H17.0855C17.0622 12.4318 13.7396 19.666 12.8275 19.666C11.9154 19.666 8.93526 12.4321 8.91427 12.3811Z" fill="#773344"/>
</svg>
