<svg width="26" height="34" viewBox="0 0 26 34" fill="none" xmlns="http://www.w3.org/2000/svg">
<path fill-rule="evenodd" clip-rule="evenodd" d="M12.9999 11.1429C16.0769 11.1429 18.5713 8.64844 18.5713 5.57143C18.5713 2.49441 16.0769 0 12.9999 0C9.92288 0 7.42847 2.49441 7.42847 5.57143C7.42847 8.64844 9.92288 11.1429 12.9999 11.1429ZM17.0856 12.3809L8.91416 12.3809L8.91427 12.3811H3C1.34315 12.3811 0 13.7243 0 15.3811V30.924C0 32.5808 1.34315 33.924 3 33.924H23C24.6569 33.924 26 32.5808 26 30.924V15.3811C26 13.7243 24.6569 12.3811 23 12.3811H17.0855L17.0856 12.3809ZM17.0855 12.3811H8.91427C8.93526 12.4321 11.9154 19.666 12.8275 19.666C13.7396 19.666 17.0622 12.4318 17.0855 12.3811Z" fill="#E05881"/>
</svg>
