<svg width="36" height="21" viewBox="0 0 36 21" fill="none" xmlns="http://www.w3.org/2000/svg">
<path d="M35.6791 18.3211C35.5824 18.159 34.9838 16.8584 32.1036 14.1852C29.0884 11.386 29.4934 11.8406 33.1252 7.00046C35.3371 4.05274 36.2214 2.25261 35.9447 1.48305C35.6814 0.749497 34.0545 0.943011 34.0545 0.943011L28.6451 0.974513C28.6451 0.974513 28.2446 0.920509 27.9453 1.09827C27.6551 1.27379 27.4683 1.67882 27.4683 1.67882C27.4683 1.67882 26.611 3.96048 25.4679 5.90013C23.058 9.99318 22.0926 10.2092 21.6989 9.95493C20.783 9.36314 21.0126 7.57425 21.0126 6.30516C21.0126 2.33811 21.6134 0.684241 19.8402 0.25671C19.2507 0.114949 18.8186 0.0204421 17.3133 0.00469095C15.3826 -0.0155606 13.7468 0.0114414 12.822 0.463725C12.2054 0.765248 11.7306 1.43805 12.0209 1.4763C12.3787 1.52355 13.1887 1.69457 13.6185 2.27961C14.1743 3.03342 14.154 4.73004 14.154 4.73004C14.154 4.73004 14.4736 9.39914 13.4092 9.97968C12.6779 10.378 11.6766 9.56565 9.52771 5.85063C8.42738 3.94923 7.59482 1.84533 7.59482 1.84533C7.59482 1.84533 7.43505 1.4538 7.14928 1.24453C6.80276 0.990265 6.31672 0.909259 6.31672 0.909259L1.17284 0.940761C1.17284 0.940761 0.401032 0.963263 0.117511 1.29854C-0.134508 1.59781 0.0972595 2.21435 0.0972595 2.21435C0.0972595 2.21435 4.12506 11.6358 8.6839 16.3859C12.867 20.74 17.6148 20.4542 17.6148 20.4542H19.766C19.766 20.4542 20.4163 20.3822 20.747 20.0244C21.0531 19.6959 21.0418 19.0794 21.0418 19.0794C21.0418 19.0794 20.9991 16.1924 22.3402 15.7671C23.661 15.3486 25.3576 18.5573 27.1555 19.7927C28.5146 20.7265 29.5474 20.5217 29.5474 20.5217L34.356 20.4542C34.356 20.4542 36.8717 20.299 35.6791 18.3211Z" fill="#E35A57"/>
</svg>
