<svg width="69" height="60" viewBox="0 0 69 60" fill="none" xmlns="http://www.w3.org/2000/svg">
<circle cx="17" cy="17" r="17" fill="#9CFFFA"/>
<path d="M17 10C12 10 7.73 13.11 6 17.5C7.73 21.89 12 25 17 25C22 25 26.27 21.89 28 17.5C26.27 13.11 22 10 17 10ZM17 22.5C14.24 22.5 12 20.26 12 17.5C12 14.74 14.24 12.5 17 12.5C19.76 12.5 22 14.74 22 17.5C22 20.26 19.76 22.5 17 22.5ZM17 14.5C15.34 14.5 14 15.84 14 17.5C14 19.16 15.34 20.5 17 20.5C18.66 20.5 20 19.16 20 17.5C20 15.84 18.66 14.5 17 14.5Z" fill="#E05881"/>
<rect x="28" y="33.8604" width="11.1686" height="42.8461" rx="5" transform="rotate(-52.4982 28 33.8604)" fill="#9CFFFA"/>
</svg>
