<svg width="25" height="25" viewBox="0 0 25 25" fill="none" xmlns="http://www.w3.org/2000/svg">
<path d="M12.488 0.416687C5.818 0.416687 0.416748 5.83002 0.416748 12.5C0.416748 19.17 5.818 24.5834 12.488 24.5834C19.1701 24.5834 24.5834 19.17 24.5834 12.5C24.5834 5.83002 19.1701 0.416687 12.488 0.416687ZM12.5001 22.1667C7.15925 22.1667 2.83341 17.8409 2.83341 12.5C2.83341 7.15919 7.15925 2.83335 12.5001 2.83335C17.8409 2.83335 22.1667 7.15919 22.1667 12.5C22.1667 17.8409 17.8409 22.1667 12.5001 22.1667ZM16.7292 11.2917C17.7322 11.2917 18.5417 10.4821 18.5417 9.47919C18.5417 8.47627 17.7322 7.66669 16.7292 7.66669C15.7263 7.66669 14.9167 8.47627 14.9167 9.47919C14.9167 10.4821 15.7263 11.2917 16.7292 11.2917ZM8.27092 11.2917C9.27383 11.2917 10.0834 10.4821 10.0834 9.47919C10.0834 8.47627 9.27383 7.66669 8.27092 7.66669C7.268 7.66669 6.45842 8.47627 6.45842 9.47919C6.45842 10.4821 7.268 11.2917 8.27092 11.2917ZM12.5001 19.1459C15.3155 19.1459 17.708 17.3817 18.6747 14.9167H6.3255C7.29216 17.3817 9.68466 19.1459 12.5001 19.1459Z" fill="white"/>
</svg>
